<svg xmlns="http://www.w3.org/2000/svg" data-name="Layer 1" viewBox="0 0 100 100" x="0px" y="0px"><title>06</title><g data-name="Group"><path data-name="Compound Path" d="M75.4,29.8a12.9,12.9,0,0,0,3.5-9.1c0-7-5.3-12.7-11.8-12.7a12,12,0,0,0-7.3,2.3A10.3,10.3,0,0,0,53.1,8c-5.9,0-10.7,5.7-10.7,12.7a13.9,13.9,0,0,0,3.8,9.8,5.1,5.1,0,0,1,1.4,3.9,3.1,3.1,0,0,0-.1,1l-.4,2.2c-.1,1-.2,2-.2,3A20.3,20.3,0,0,0,48.3,48a5.5,5.5,0,0,0,3,3l1.7.2A4.9,4.9,0,0,0,57.6,48l3.2-7.2L64,48a4.1,4.1,0,0,0,1.7,2.2,4.6,4.6,0,0,0,4.8.6A5,5,0,0,0,73.2,48a19.5,19.5,0,0,0,1.3-10.4l-.4-2.3c0-.3-.1-.6-.1-.9a5.7,5.7,0,0,1,1.4-4.6ZM71,25.7A12.4,12.4,0,0,0,68,35c.1.4.1.9.2,1.3l.3,2.2a12.3,12.3,0,0,1-.1,4.7l-3-6.8a5,5,0,0,0-4.6-2.9,5.1,5.1,0,0,0-4.7,3l-3,6.7a21.1,21.1,0,0,1-.2-2.6,7.5,7.5,0,0,1,.2-2.1l.3-2.2c0-.4.1-.8.1-1.2a10.8,10.8,0,0,0-3.1-8.9,7.6,7.6,0,0,1-2-5.5c0-3.7,2.1-6.7,4.7-6.7a3.7,3.7,0,0,1,3,1.1,5.2,5.2,0,0,0,7.1.2A5.7,5.7,0,0,1,67.1,14c3.2,0,5.8,3,5.8,6.7A7.4,7.4,0,0,1,71,25.7Z"/><path data-name="Path" d="M32.5,56.1l-23,14a3,3,0,0,0,3.1,5.2L35.8,61.2l.3-.2a2.1,2.1,0,0,1,1.2-.5h.1l20.3-1.8c.1,0,.3.1.3.2s0,.3-.2.4L47.5,63.8a4.9,4.9,0,0,0-2.9,2.9,5.6,5.6,0,0,0,.1,4.2A5.4,5.4,0,0,0,49.6,74H63.5a4.5,4.5,0,0,0,2-.4c1.9-.9,13.6-6.4,18.9-9.9a1,1,0,0,1,1.3.2.9.9,0,0,1,.2.8.9.9,0,0,1-.4.7L63.7,79l-28-1a3.2,3.2,0,0,0-1.4.3l-16.5,8a3.1,3.1,0,0,0-1.3,4.1A3,3,0,0,0,19.2,92a3.1,3.1,0,0,0,1.3-.3L36.3,84l27.5,1a5.7,5.7,0,0,0,2.9-.8L88.8,70.3a7,7,0,0,0,3.1-4.9,7.4,7.4,0,0,0-1.7-5.6,7.1,7.1,0,0,0-9.1-1.2,177.4,177.4,0,0,1-17.9,9.3H52.8l7.4-3.2a6.3,6.3,0,0,0-3-12.1L36.9,54.5A8.7,8.7,0,0,0,32.5,56.1Z"/></g></svg>